<svg xmlns="http://www.w3.org/2000/svg" version="1.1" xmlns:xlink="http://www.w3.org/1999/xlink" xmlns:svgjs="http://svgjs.dev/svgjs" width="1500" height="189" viewBox="0 0 1500 189"><g transform="matrix(1,0,0,1,1.0950083183935249,-0.905331645258201)"><svg viewBox="0 0 396 50" data-background-color="#ffffff" preserveAspectRatio="xMidYMid meet" height="189" width="1500" xmlns="http://www.w3.org/2000/svg" xmlns:xlink="http://www.w3.org/1999/xlink"><g id="tight-bounds" transform="matrix(1,0,0,1,0.2400000000000091,0.23950572625878408)"><svg viewBox="0 0 395.52 49.520988547482446" height="49.520988547482446" width="395.52"><g><svg viewBox="0 0 492.14120797680755 61.61842416050684" height="49.520988547482446" width="395.52"><g><rect width="5.52916724478432" height="61.61842416050684" x="76.61778092892291" y="0" fill="#3d3839" opacity="1" stroke-width="0" stroke="transparent" fill-opacity="1" class="rect-yte-0" data-fill-palette-color="primary" rx="1%" id="yte-0" data-palette-color="#3d3839"></rect></g><g transform="matrix(1,0,0,1,96.62120797680754,0.15327966209081012)"><svg viewBox="0 0 395.52 61.31186483632522" height="61.31186483632522" width="395.52"><g id="textblocktransform"><svg viewBox="0 0 395.52 61.31186483632522" height="61.31186483632522" width="395.52" id="textblock"><g><svg viewBox="0 0 395.52 61.31186483632522" height="61.31186483632522" width="395.52"><g transform="matrix(1,0,0,1,0,0)"><svg width="395.52" viewBox="0.4 -35.9 236.73 36.699999999999996" height="61.31186483632522" data-palette-color="#3d3839"><path d="M21.5-1.3L21.1 0.4Q17.8 0 14.33 0 10.85 0 7.55 0.4L7.55 0.4 7.15-1.3Q10.35-1.7 11.08-2.02 11.8-2.35 11.95-2.65 12.1-2.95 12.1-3.6L12.1-3.6 12.1-30.15 3.75-30.15Q3-28.05 2.7-23.9L2.7-23.9 0.85-24.2Q0.4-27.65 0.4-29.75 0.4-31.85 0.45-32.85L0.45-32.85Q3.25-32.5 5.5-32.5L5.5-32.5 23.15-32.5Q25.4-32.5 28.2-32.85L28.2-32.85Q28.25-31.95 28.25-29.93 28.25-27.9 27.75-24.2L27.75-24.2 25.95-23.9Q25.65-28.05 24.9-30.15L24.9-30.15 16.55-30.15 16.55-3.6Q16.55-2.95 16.7-2.65 16.85-2.35 17.3-2.15L17.3-2.15Q18.05-1.85 20.7-1.4L20.7-1.4 21.5-1.3ZM42.55-18.2L42.55-18.2Q40.65-18.2 38-14.45L38-14.45 38-3.35Q38-2.7 38.2-2.43 38.4-2.15 38.95-1.95L38.95-1.95Q39.8-1.6 42.05-1.4L42.05-1.4 42.8-1.3 42.45 0.4Q37.95 0 36 0 34.05 0 30.75 0.4L30.75 0.4 30.35-1.1Q32.3-1.4 33.02-1.78 33.75-2.15 33.87-2.4 34-2.65 34-3.3L34-3.3 34-16.8Q34-18.3 33.15-18.45L33.15-18.45Q32.3-18.55 30.95-18.3L30.95-18.3 30.4-18.2 30.15-19.7Q33.65-21.25 36.75-21.6L36.75-21.6 37.55-20.7Q37.55-19.1 38-16.85L38-16.85 39.65-18.95Q41.8-21.6 44.15-21.6L44.15-21.6Q45.15-21.6 47.7-20.65L47.7-20.65Q47-16.7 46-14.2L46-14.2 44.65-14.1Q44.65-15.9 44.12-17.05 43.6-18.2 42.55-18.2ZM54.05-5.6Q54.05-4.2 54.95-3.2 55.85-2.2 57.55-2.2 59.25-2.2 61.85-4.2L61.85-4.2 61.85-9.9 58-9.2Q54.05-8.55 54.05-5.6L54.05-5.6ZM65.85-14.3L65.85-14.3 65.85-4.1Q65.85-2.3 67.8-2.3L67.8-2.3 69.15-2.35 69.55-0.9Q67.1-0.35 64.35 0.8L64.35 0.8Q62.5-0.45 62-2.55L62-2.55Q59.75-0.65 58.32 0.08 56.9 0.8 55.5 0.8L55.5 0.8Q52.95 0.8 51.42-0.8 49.9-2.4 49.9-5.13 49.9-7.85 51.85-9.18 53.8-10.5 57.25-10.85L57.25-10.85 61.85-11.35 61.85-13.6Q61.85-16.45 61-17.9 60.15-19.35 57.92-19.35 55.7-19.35 54.6-18.75L54.6-18.75Q54.3-17.7 54.3-14.15L54.3-14.15 52.2-13.55Q51.1-17.2 50.95-19.15L50.95-19.15Q56.35-21.6 58.75-21.6L58.75-21.6Q62.45-21.6 64.15-19.83 65.85-18.05 65.85-14.3ZM88.04-18.35L88.04-18.35Q88.04-19 87.24-19.25L87.24-19.25 84.99-19.7 84.89-21.15Q87.84-20.8 89.09-20.8 90.34-20.8 93.29-21.15L93.29-21.15 92.94-19.6Q91.89-19.55 91.49-19.18 91.09-18.8 90.54-17.5L90.54-17.5 82.99 0.45 80.69 0.45 72.99-17.65Q72.44-18.9 72.07-19.23 71.69-19.55 70.59-19.6L70.59-19.6 70.29-21.15Q73.59-20.8 75.29-20.8 76.99-20.8 80.29-21.15L80.29-21.15 80.14-19.7Q78.54-19.45 77.84-19.23 77.14-19 77.14-18.35L77.14-18.35Q77.14-18.05 77.29-17.65L77.29-17.65 82.24-5.6 82.54-4.35 82.84-4.3 83.19-5.7 87.84-17.65Q88.04-18.05 88.04-18.35ZM106.74-2.35L106.74-2.35Q109.74-2.35 112.74-4.5L112.74-4.5 113.54-3.4Q108.99 0.8 104.77 0.8 100.54 0.8 97.82-2.13 95.09-5.05 95.09-9.9 95.09-14.75 97.84-18.18 100.59-21.6 104.97-21.6 109.34-21.6 111.49-18.88 113.64-16.15 113.64-11.5L113.64-11.5 99.54-10.5Q99.94-2.35 106.74-2.35ZM104.69-19.55L104.69-19.55Q102.04-19.55 100.79-17.43 99.54-15.3 99.54-12.3L99.54-12.3 109.14-13.5Q109.14-19.55 104.69-19.55ZM124.84-30.15L124.84-3.3Q124.84-2.65 124.96-2.4 125.09-2.15 125.59-1.9L125.59-1.9Q126.54-1.4 127.99-1.2L127.99-1.2 128.49-1.1 128.14 0.4Q123.89 0 122.79 0 121.69 0 117.59 0.4L117.59 0.4 117.19-1.1Q119.14-1.4 119.86-1.78 120.59-2.15 120.71-2.4 120.84-2.65 120.84-3.3L120.84-3.3 120.84-31.1Q120.84-32.55 119.99-32.8L119.99-32.8Q119.29-32.9 117.69-32.6L117.69-32.6 117.19-32.5 116.94-34.05Q120.89-35.7 124.49-35.9L124.49-35.9 125.19-35Q124.84-33.5 124.84-32.1 124.84-30.7 124.84-30.15L124.84-30.15ZM139.03-15.8L139.03-3.3Q139.03-2.65 139.16-2.4 139.28-2.15 139.78-1.9L139.78-1.9Q140.74-1.4 142.19-1.2L142.19-1.2 142.69-1.1 142.34 0.4Q138.99 0 137.03 0 135.09 0 131.78 0.4L131.78 0.4 131.38-1.1Q133.34-1.4 134.06-1.78 134.78-2.15 134.91-2.4 135.03-2.65 135.03-3.3L135.03-3.3 135.03-17.05Q135.03-18.5 134.19-18.65L134.19-18.65Q133.44-18.75 131.84-18.45L131.84-18.45 131.53-19.95Q133.03-20.55 135.28-21.08 137.53-21.6 138.84-21.6L138.84-21.6 139.59-20.7Q139.03-18.6 139.03-15.8L139.03-15.8ZM134.11-27.98Q133.28-28.75 133.28-29.95 133.28-31.15 134.09-31.95 134.88-32.75 136.19-32.75 137.49-32.75 138.31-31.95 139.13-31.15 139.13-29.95 139.13-28.75 138.31-27.98 137.49-27.2 136.21-27.2 134.94-27.2 134.11-27.98ZM157.63-2.35L157.63-2.35Q160.63-2.35 163.63-4.5L163.63-4.5 164.43-3.4Q159.88 0.8 155.66 0.8 151.43 0.8 148.71-2.13 145.98-5.05 145.98-9.9 145.98-14.75 148.73-18.18 151.48-21.6 155.86-21.6 160.23-21.6 162.38-18.88 164.53-16.15 164.53-11.5L164.53-11.5 150.43-10.5Q150.83-2.35 157.63-2.35ZM155.58-19.55L155.58-19.55Q152.93-19.55 151.68-17.43 150.43-15.3 150.43-12.3L150.43-12.3 160.03-13.5Q160.03-19.55 155.58-19.55ZM175.73-16.05L175.73-3.2Q175.73-2.55 175.85-2.33 175.98-2.1 176.48-1.85L176.48-1.85Q177.43-1.35 179.18-1.05L179.18-1.05 178.83 0.4Q174.73 0 173.66 0 172.58 0 168.48 0.4L168.48 0.4 168.08-1.1Q170.03-1.4 170.75-1.78 171.48-2.15 171.6-2.4 171.73-2.65 171.73-3.3L171.73-3.3 171.73-16.8Q171.73-18.3 170.88-18.45L170.88-18.45Q170.03-18.55 168.68-18.3L168.68-18.3 168.13-18.2 167.88-19.7Q171.43-21.25 174.38-21.6L174.38-21.6 175.18-20.7Q175.18-19.4 175.68-17.9L175.68-17.9 177.58-19.35Q180.43-21.6 183.58-21.6 186.73-21.6 188.41-19.85 190.08-18.1 190.08-14.05L190.08-14.05 190.08-3.3Q190.08-2.65 190.2-2.4 190.33-2.15 190.78-1.9L190.78-1.9Q191.48-1.55 193.23-1.2L193.23-1.2 193.73-1.1 193.38 0.4Q189.28 0 188.2 0 187.13 0 183.03 0.4L183.03 0.4 182.68-1.05Q184.38-1.35 185.1-1.73 185.83-2.1 185.95-2.35 186.08-2.6 186.08-3.2L186.08-3.2 186.08-13.05Q186.08-15.95 185.06-17.25 184.03-18.55 181.48-18.55 178.93-18.55 175.73-16.05L175.73-16.05ZM212.83-12.95L211.13-13.25Q211.18-13.75 211.18-14.45L211.18-14.45Q211.18-17.45 210.63-18.55L210.63-18.55Q209.28-19.5 206.48-19.5L206.48-19.5Q201.28-19.5 201.28-11.15L201.28-11.15Q201.28-6.85 203.23-4.6 205.18-2.35 208.18-2.35 211.18-2.35 214.18-4.4L214.18-4.4 214.98-3.2Q210.53 0.8 206.83 0.8L206.83 0.8Q202.38 0.8 199.6-2.15 196.83-5.1 196.83-9.98 196.83-14.85 199.55-18.23 202.28-21.6 206.88-21.6L206.88-21.6Q208.43-21.6 210.88-20.93 213.33-20.25 214.63-19.7L214.63-19.7Q214.53-18.65 213.9-16.28 213.28-13.9 212.83-12.95L212.83-12.95ZM230.22-2.35L230.22-2.35Q233.22-2.35 236.22-4.5L236.22-4.5 237.03-3.4Q232.47 0.8 228.25 0.8 224.03 0.8 221.3-2.13 218.57-5.05 218.57-9.9 218.57-14.75 221.32-18.18 224.07-21.6 228.45-21.6 232.82-21.6 234.97-18.88 237.13-16.15 237.13-11.5L237.13-11.5 223.03-10.5Q223.42-2.35 230.22-2.35ZM228.17-19.55L228.17-19.55Q225.53-19.55 224.28-17.43 223.03-15.3 223.03-12.3L223.03-12.3 232.63-13.5Q232.63-19.55 228.17-19.55Z" opacity="1" transform="matrix(1,0,0,1,0,0)" fill="#3d3839" class="wordmark-text-0" data-fill-palette-color="primary" id="text-0"></path></svg></g></svg></g></svg></g></svg></g><g transform="matrix(1,0,0,1,0,0.15327966209081012)"><svg viewBox="0 0 62.1435211258226 61.31186483632522" height="61.31186483632522" width="62.1435211258226"><g><svg xmlns="http://www.w3.org/2000/svg" xmlns:xlink="http://www.w3.org/1999/xlink" version="1.1" x="0" y="0" viewBox="5.0003306685034765 5.603027776661499 89.99941931237132 88.7949722233385" enable-background="new 0 0 100 100" xml:space="preserve" height="61.31186483632522" width="62.1435211258226" class="icon-icon-0" data-fill-palette-color="accent" id="icon-0"><g fill="#ffc604" data-fill-palette-color="accent"><path d="M93.926 7.859A2.2 2.2 0 0 0 93.577 7.414L93.179 7.014A2.4 2.4 0 0 0 92.745 6.677C88.283 3.999 79.974 6.503 74.224 12.257L65.808 20.671 27.614 18.125C27.552 18.122 27.491 18.119 27.429 18.119 24.259 18.163 21.854 19.906 21.303 22.565 20.761 25.177 22.132 29.126 27.775 31.678L46.006 40.794C43.027 44.294 37.419 51.06 34.621 55.611L24.001 56.792A2.31 2.31 0 0 0 21.959 59.347L22.612 65.233A2.31 2.31 0 0 0 24.584 67.266L32.245 68.36 33.341 76.023A2.314 2.314 0 0 0 35.374 77.995L41.26 78.648A2.33 2.33 0 0 0 42.959 78.156C43.439 77.772 43.744 77.216 43.814 76.604L44.992 65.983C49.545 63.186 56.309 57.581 59.81 54.601L68.926 72.832C71.144 77.734 74.416 79.412 76.95 79.412 77.331 79.412 77.697 79.374 78.037 79.304 80.697 78.753 82.44 76.348 82.481 73.178 82.481 73.116 82.481 73.055 82.478 72.993L79.929 34.795 88.343 26.381C94.099 20.629 96.604 12.321 93.926 7.859M75.92 32.266A2.32 2.32 0 0 0 75.246 34.056L77.856 73.197C77.833 73.903 77.625 74.665 77.1 74.773 76.315 74.932 74.534 74.029 73.121 70.889A1 1 0 0 0 73.08 70.803L62.616 49.873A2.306 2.306 0 0 0 59.025 49.17C58.908 49.271 47.3 59.442 41.699 62.553A2.31 2.31 0 0 0 40.524 64.32L39.472 73.795 37.664 73.593 36.61 66.21A2.32 2.32 0 0 0 35.828 64.783 2.3 2.3 0 0 0 34.395 63.995L27.01 62.94 26.811 61.132 36.286 60.077A2.31 2.31 0 0 0 38.053 58.902C41.164 53.3 51.333 41.694 51.436 41.578A2.317 2.317 0 0 0 50.733 37.983L29.802 27.52C29.773 27.505 29.743 27.494 29.714 27.479 26.576 26.07 25.665 24.291 25.829 23.503 25.937 22.979 26.702 22.769 27.408 22.746L66.549 25.355A2.33 2.33 0 0 0 68.339 24.683L77.493 15.526C82.107 10.912 87.844 9.53 90.097 10.507 91.07 12.763 89.69 18.496 85.076 23.111z" fill="#ffc604" data-fill-palette-color="accent"></path><path d="M26.061 46.546A2.313 2.313 0 0 0 22.791 43.277L5.679 60.389A2.31 2.31 0 0 0 5.679 63.66 2.31 2.31 0 0 0 8.949 63.66z" fill="#ffc604" data-fill-palette-color="accent"></path><path d="M53.312 75.652L38.515 90.45A2.307 2.307 0 0 0 38.515 93.719C38.966 94.172 39.558 94.398 40.15 94.398S41.334 94.172 41.785 93.719L56.583 78.922A2.31 2.31 0 0 0 56.583 75.652 2.31 2.31 0 0 0 53.312 75.652" fill="#ffc604" data-fill-palette-color="accent"></path><path d="M24.64 72.876L9.379 88.139A2.309 2.309 0 0 0 11.014 92.085C11.606 92.085 12.198 91.86 12.649 91.409L27.91 76.148A2.315 2.315 0 0 0 27.91 72.877 2.31 2.31 0 0 0 24.64 72.876" fill="#ffc604" data-fill-palette-color="accent"></path></g></svg></g></svg></g></svg></g><defs></defs></svg><rect width="395.52" height="49.520988547482446" fill="none" stroke="none" visibility="hidden"></rect></g></svg></g></svg>